<?xml version="1.0" encoding="UTF-8"?>
<svg version="1.1" xmlns="http://www.w3.org/2000/svg" width="500" height="500">
<path d="M0 0 C7.26 0 14.52 0 22 0 C22 0.66 22 1.32 22 2 C23.0828125 1.9690625 23.0828125 1.9690625 24.1875 1.9375 C26.91925138 1.99820559 29.34256091 2.39258535 32 3 C32 3.66 32 4.32 32 5 C33.03060547 5.27263672 33.03060547 5.27263672 34.08203125 5.55078125 C34.98308594 5.80214844 35.88414063 6.05351562 36.8125 6.3125 C37.70582031 6.55613281 38.59914063 6.79976562 39.51953125 7.05078125 C42.13123804 8.0502218 43.17610842 8.93798924 45 11 C46.22406958 12.04765157 47.45365919 13.08887405 48.6875 14.125 C61.01931593 24.88108389 61.01931593 24.88108389 62 31 C62.66 31 63.32 31 64 31 C64.67812114 32.8708878 65.3419946 34.74694293 66 36.625 C66.37125 37.66914063 66.7425 38.71328125 67.125 39.7890625 C68.00483564 43.01774506 68.15988262 45.67244294 68 49 C68.66 49 69.32 49 70 49 C70 51.64 70 54.28 70 57 C67.66785852 58.20628008 65.50357861 59.1654738 63 60 C61.9993291 65.96345767 61.9337003 70.28728907 64 76 C60.06040911 78.74958313 57.08463632 79.46704551 52.3125 79.75 C50.60513672 79.86601562 50.60513672 79.86601562 48.86328125 79.984375 C46 80 46 80 44 79 C44.02320312 79.62648438 44.04640625 80.25296875 44.0703125 80.8984375 C44.08835937 81.71570313 44.10640625 82.53296875 44.125 83.375 C44.14820312 84.18710937 44.17140625 84.99921875 44.1953125 85.8359375 C44 88 44 88 42 90 C39.27302777 90.17170903 36.66093532 90.2324568 33.9375 90.1875 C33.19177734 90.18685547 32.44605469 90.18621094 31.67773438 90.18554688 C26.14028159 90.14028159 26.14028159 90.14028159 25 89 C24.7872443 86.2459957 24.62309488 83.50823707 24.5 80.75 C24.30054858 73.79653939 24.30054858 73.79653939 23 67 C20.59454362 65.79727181 19.05003047 65.89928528 16.375 65.9375 C15.55773437 65.94652344 14.74046875 65.95554687 13.8984375 65.96484375 C13.27195312 65.97644531 12.64546875 65.98804688 12 66 C9.14642641 70.53214629 7.4976057 73.54658695 8.375 78.9375 C9.98376554 85.10602114 13.01898852 90.96502853 18.36328125 94.61328125 C25.01170265 98.10985843 31.49674337 101.22318715 39 99 C41.39714396 98.01013458 43.74722683 96.96906929 46.08203125 95.83984375 C48 95 48 95 50 95 C50.495 93.515 50.495 93.515 51 92 C52.62339805 90.29115995 54.29319053 88.62553283 56 87 C56.53625 86.401875 57.0725 85.80375 57.625 85.1875 C59 84 59 84 62 84 C61.69024532 85.77131561 61.37709575 87.54203778 61.0625 89.3125 C60.88847656 90.29863281 60.71445313 91.28476562 60.53515625 92.30078125 C60 95 60 95 59 98 C58.34 98 57.68 98 57 98 C56.5978125 99.2065625 56.5978125 99.2065625 56.1875 100.4375 C55.795625 101.283125 55.40375 102.12875 55 103 C53.515 103.495 53.515 103.495 52 104 C51.5359375 104.99 51.5359375 104.99 51.0625 106 C50 108 50 108 47.875 108.75 C47.25625 108.8325 46.6375 108.915 46 109 C46 109.66 46 110.32 46 111 C42.7 111.99 39.4 112.98 36 114 C36.495 117.465 36.495 117.465 37 121 C28.49365126 124.80070901 21.43622118 127.44934387 12 127 C12 126.34 12 125.68 12 125 C11.39414063 124.96261719 10.78828125 124.92523438 10.1640625 124.88671875 C3.78138306 124.3859239 -1.94216368 123.04935314 -8 121 C-8 120.34 -8 119.68 -8 119 C-8.680625 118.79375 -9.36125 118.5875 -10.0625 118.375 C-14.65772987 116.22404134 -18.81041919 113.05473049 -21.375 108.625 C-22.84447971 106.77875621 -22.84447971 106.77875621 -24.9296875 106.96875 C-25.69539063 107.0203125 -26.46109375 107.071875 -27.25 107.125 C-30.86347631 107.25948213 -32.7767397 106.96224182 -35.625 104.6875 C-44.8661267 95.57502008 -49.58179003 83.49408484 -52 71 C-52.33 71 -52.66 71 -53 71 C-53 65.72 -53 60.44 -53 55 C-52.34 55 -51.68 55 -51 55 C-50.93941406 54.32453125 -50.87882812 53.6490625 -50.81640625 52.953125 C-50.73261719 52.06109375 -50.64882813 51.1690625 -50.5625 50.25 C-50.48128906 49.36828125 -50.40007813 48.4865625 -50.31640625 47.578125 C-50.03761535 45.30649548 -49.61209423 43.20148177 -49 41 C-48.34 41 -47.68 41 -47 41 C-46.87625 40.0925 -46.7525 39.185 -46.625 38.25 C-46.07890323 35.41029677 -45.42736197 33.47409409 -44 31 C-43.34 31 -42.68 31 -42 31 C-41.84337891 30.14341797 -41.84337891 30.14341797 -41.68359375 29.26953125 C-38.78384702 19.64237212 -29.05586799 13.75663731 -20.76171875 9.234375 C-12.50073014 5 -12.50073014 5 -10 5 C-9.67 4.34 -9.34 3.68 -9 3 C-6.93359375 2.5859375 -6.93359375 2.5859375 -4.4375 2.375 C-3.61121094 2.30023438 -2.78492188 2.22546875 -1.93359375 2.1484375 C-0.97646484 2.07496094 -0.97646484 2.07496094 0 2 C0 1.34 0 0.68 0 0 Z " fill="#DEE0E3" transform="translate(82,184)"/>
<path d="M0 0 C0.625 2.0625 0.625 2.0625 1 4 C2.32 4.33 3.64 4.66 5 5 C5 3.35 5 1.7 5 0 C8.02029602 -1.00676534 9.14745641 -0.99832926 12.1875 -0.5625 C16.50266669 -0.01072459 20.65248587 0.07904571 25 0 C25.495 2.97 25.495 2.97 26 6 C27.32 6 28.64 6 30 6 C30.33 4.02 30.66 2.04 31 0 C34.63 -0.33 38.26 -0.66 42 -1 C42 1.31 42 3.62 42 6 C42.66 6 43.32 6 44 6 C44 6.66 44 7.32 44 8 C44.99 8.495 44.99 8.495 46 9 C46.268125 7.88625 46.53625 6.7725 46.8125 5.625 C48 2 48 2 51 0 C53.62890625 -0.23046875 53.62890625 -0.23046875 56.5625 -0.1875 C57.53316406 -0.18105469 58.50382812 -0.17460937 59.50390625 -0.16796875 C62 0 62 0 64 1 C64 1.66 64 2.32 64 3 C65.32 3.33 66.64 3.66 68 4 C68 2.35 68 0.7 68 -1 C72.23623542 -0.90653687 76.47190851 -0.80046087 80.70751953 -0.68261719 C82.1488374 -0.64430326 83.59025168 -0.60945457 85.03173828 -0.578125 C87.10223886 -0.53252554 89.17207433 -0.47452556 91.2421875 -0.4140625 C92.4885498 -0.3826416 93.73491211 -0.3512207 95.01904297 -0.31884766 C98 0 98 0 100 2 C100.33 1.34 100.66 0.68 101 0 C124.76 0 148.52 0 173 0 C173 6 173 6 172 8 C171.01 8 170.02 8 169 8 C168.96241577 8.94637329 168.96241577 8.94637329 168.92407227 9.91186523 C168.80845863 12.75396825 168.68557684 15.59571083 168.5625 18.4375 C168.52318359 19.43072266 168.48386719 20.42394531 168.44335938 21.44726562 C168.40146484 22.39150391 168.35957031 23.33574219 168.31640625 24.30859375 C168.26141968 25.62041626 168.26141968 25.62041626 168.20532227 26.95874023 C168 29 168 29 167 30 C165.49448826 30.09575309 163.9844897 30.12188187 162.47593689 30.12025452 C161.00981209 30.12231651 161.00981209 30.12231651 159.5140686 30.12442017 C158.43297821 30.12082489 157.35188782 30.11722961 156.23803711 30.11352539 C154.54069679 30.11374443 154.54069679 30.11374443 152.80906677 30.1139679 C149.04847329 30.11326819 145.28792863 30.10547311 141.52734375 30.09765625 C138.92802457 30.09579227 136.32870503 30.09436828 133.72938538 30.09336853 C127.57411423 30.08993341 121.4188634 30.08204256 115.26359993 30.07201904 C108.25766654 30.06085694 101.25173233 30.05534721 94.24579227 30.05032361 C79.83051867 30.03985992 65.41525996 30.02226108 51 30 C51 29.34 51 28.68 51 28 C50.505 28.33 50.01 28.66 49.5 29 C45.90909106 30.43636358 42.85543873 30.12851462 39 30 C38.01 28.02 38.01 28.02 37 26 C36.34 26 35.68 26 35 26 C35 26.99 35 27.98 35 29 C31.73581765 30.63209118 28.14474787 30.10095518 24.5625 30.0625 C23.78583984 30.05798828 23.00917969 30.05347656 22.20898438 30.04882812 C20.13929654 30.03634939 18.06964313 30.01846064 16 30 C13.75883882 30 11.517606 30.04199857 9.27734375 30.10546875 C7.83073872 30.13331358 6.38412364 30.16063961 4.9375 30.1875 C4.20466797 30.21263672 3.47183594 30.23777344 2.71679688 30.26367188 C0.58984375 30.29296875 0.58984375 30.29296875 -3 30 C-3.66 29.01 -4.32 28.02 -5 27 C-7.15811388 27.94729537 -7.15811388 27.94729537 -9 30 C-11.70348298 30.1456618 -14.30105121 30.18633975 -17 30.125 C-17.73734375 30.11597656 -18.4746875 30.10695313 -19.234375 30.09765625 C-21.15636886 30.07310523 -23.07821082 30.03727608 -25 30 C-25.66 30 -26.32 30 -27 30 C-30 30 -33 30 -36 30 C-37.03125 30.020625 -38.0625 30.04125 -39.125 30.0625 C-42 30 -42 30 -43 29 C-43.08775605 26.85441173 -43.10695219 24.70595579 -43.09765625 22.55859375 C-43.09443359 21.25341797 -43.09121094 19.94824219 -43.08789062 18.60351562 C-43.07953401 17.2148431 -43.07106905 15.82617123 -43.0625 14.4375 C-43.05748666 13.04492344 -43.05292347 11.65234519 -43.04882812 10.25976562 C-43.03699434 6.8398013 -43.0205088 3.41992156 -43 0 C-39.37 0 -35.74 0 -32 0 C-32 0.99 -32 1.98 -32 3 C-31.01 2.67 -30.02 2.34 -29 2 C-28.67 1.34 -28.34 0.68 -28 0 C-24.7 0 -21.4 0 -18 0 C-16 4 -16 4 -16 7 C-15.01 6.67 -14.02 6.34 -13 6 C-11.77479736 2.99152582 -11.77479736 2.99152582 -11 0 C-9.54263913 -0.19491452 -8.08405407 -0.38069358 -6.625 -0.5625 C-5.81289063 -0.66691406 -5.00078125 -0.77132812 -4.1640625 -0.87890625 C-2 -1 -2 -1 0 0 Z " fill="#EEEEED" transform="translate(294,233)"/>
<path d="M0 0 C4.08375 0.185625 4.08375 0.185625 8.25 0.375 C9.10110352 0.40899902 9.95220703 0.44299805 10.82910156 0.47802734 C17.7327478 0.83939774 17.7327478 0.83939774 21 3 C21.33 2.34 21.66 1.68 22 1 C23.79133978 0.94608007 25.58313899 0.90724429 27.375 0.875 C28.37273437 0.85179687 29.37046875 0.82859375 30.3984375 0.8046875 C33 1 33 1 35 3 C35 4.32 35 5.64 35 7 C35.99 7 36.98 7 38 7 C38 5.02 38 3.04 38 1 C40.58445773 0.8918134 43.16437352 0.81262763 45.75 0.75 C46.47960937 0.71648437 47.20921875 0.68296875 47.9609375 0.6484375 C51.23076991 0.588986 53.59672064 0.78031721 56.48828125 2.35546875 C58.91049712 6.59278178 58.53774065 10.77358369 58.4375 15.5625 C58.44458984 16.52091797 58.45167969 17.47933594 58.45898438 18.46679688 C58.39484535 25.50728885 58.39484535 25.50728885 56.66040039 27.67163086 C51.72062619 31.62359549 48.15662173 31.36637421 42.0625 31.375 C41.15564453 31.39949219 40.24878906 31.42398437 39.31445312 31.44921875 C32.62202595 31.47876589 32.62202595 31.47876589 29.37109375 28.9765625 C28.91863281 28.32429688 28.46617187 27.67203125 28 27 C27.34 28.32 26.68 29.64 26 31 C20.19761976 31.07401964 14.39551278 31.12853989 8.59277344 31.16479492 C6.61778987 31.17990462 4.64283996 31.20039328 2.66796875 31.22631836 C-0.16675106 31.26260619 -3.00102826 31.27970416 -5.8359375 31.29296875 C-6.72243988 31.30845261 -7.60894226 31.32393646 -8.52230835 31.33988953 C-9.34300812 31.34011612 -10.16370789 31.34034271 -11.00927734 31.34057617 C-11.73319672 31.34723801 -12.45711609 31.35389984 -13.20297241 31.36076355 C-15 31 -15 31 -17 28 C-17.24291992 25.39624023 -17.24291992 25.39624023 -17.23046875 22.30859375 C-17.22853516 21.19935547 -17.22660156 20.09011719 -17.22460938 18.94726562 C-17.21236328 17.78904297 -17.20011719 16.63082031 -17.1875 15.4375 C-17.18685547 14.27541016 -17.18621094 13.11332031 -17.18554688 11.91601562 C-17.14033565 3.2806713 -17.14033565 3.2806713 -16 1 C-13.36 1 -10.72 1 -8 1 C-8 8.26 -8 15.52 -8 23 C-4.535 22.505 -4.535 22.505 -1 22 C-0.67 14.74 -0.34 7.48 0 0 Z " fill="#EAEAE9" transform="translate(181,232)"/>
<path d="M0 0 C0 0.33 0 0.66 0 1 C-1.21623047 1.12955078 -1.21623047 1.12955078 -2.45703125 1.26171875 C-15.92140604 2.97023662 -27.57713814 7.95857646 -36.25 18.75 C-37.19817375 20.14577533 -38.11422508 21.56381581 -39 23 C-39.48726562 23.75410156 -39.97453125 24.50820312 -40.4765625 25.28515625 C-43.82539387 31.33737384 -44.45911597 36.83759112 -44.5 43.625 C-44.50628418 44.41237549 -44.51256836 45.19975098 -44.51904297 46.01098633 C-44.26968577 57.61578001 -39.35587303 66.83518528 -31.05078125 74.890625 C-21.63506379 82.45375708 -11.72767695 83.68726195 0 84 C-1 86 -1 86 -3.16015625 86.8515625 C-15.76664563 90.21103073 -29.01171415 90.93994633 -41 85 C-41.495 84.01 -41.495 84.01 -42 83 C-43.010625 82.484375 -44.02125 81.96875 -45.0625 81.4375 C-50.10714267 78.66606051 -53.42723062 74.42305729 -57 70 C-57.763125 69.071875 -58.52625 68.14375 -59.3125 67.1875 C-64.91883557 56.59775503 -65.94355442 42.81050602 -62.80078125 31.265625 C-58.1313744 18.05462025 -50.2755893 8.16633006 -37.6875 1.9375 C-25.18949889 -3.89110029 -13.06749842 -5.16550526 0 0 Z " fill="#121212" transform="translate(117,219)"/>
<path d="M0 0 C1.62463842 -0.05395478 3.24978541 -0.09277195 4.875 -0.125 C5.77992188 -0.14820313 6.68484375 -0.17140625 7.6171875 -0.1953125 C10 0 10 0 12 2 C12.33 1.34 12.66 0.68 13 0 C36.76 0 60.52 0 85 0 C85 6 85 6 84 8 C83.01 8 82.02 8 81 8 C80.96241577 8.94637329 80.96241577 8.94637329 80.92407227 9.91186523 C80.80845863 12.75396825 80.68557684 15.59571083 80.5625 18.4375 C80.52318359 19.43072266 80.48386719 20.42394531 80.44335938 21.44726562 C80.40146484 22.39150391 80.35957031 23.33574219 80.31640625 24.30859375 C80.27974854 25.18314209 80.24309082 26.05769043 80.20532227 26.95874023 C80 29 80 29 79 30 C77.07782922 30.10445557 75.15180181 30.13855137 73.22680664 30.14526367 C71.37467308 30.15483345 71.37467308 30.15483345 69.48512268 30.16459656 C68.12680093 30.16612512 66.76847866 30.16723914 65.41015625 30.16796875 C64.02632105 30.1711797 62.6424862 30.17454365 61.25865173 30.17805481 C58.35414849 30.18405224 55.44967502 30.18589409 52.54516602 30.18530273 C48.81797854 30.18520109 45.09098147 30.19885272 41.36383915 30.21607494 C38.50458392 30.2271778 35.64537497 30.22922247 32.78610039 30.22869301 C31.41174094 30.22987574 30.03738039 30.23431388 28.66304207 30.24202538 C26.74291548 30.25178998 24.82273338 30.24769215 22.90258789 30.24291992 C21.26163902 30.24505745 21.26163902 30.24505745 19.58753967 30.24723816 C17 30 17 30 15 28 C15.30791692 26.328451 15.64386903 24.66194453 16 23 C15.81695312 22.39414063 15.63390625 21.78828125 15.4453125 21.1640625 C14.85679738 18.30408552 15.53116022 16.50527293 16.4375 13.75 C16.72496094 12.85796875 17.01242187 11.9659375 17.30859375 11.046875 C17.53675781 10.37140625 17.76492188 9.6959375 18 9 C18.33 9 18.66 9 19 9 C19 15.27 19 21.54 19 28 C20.65 28 22.3 28 24 28 C24 19.09 24 10.18 24 1 C21.03 1 18.06 1 15 1 C14.34 6.28 13.68 11.56 13 17 C12.34 17 11.68 17 11 17 C9.61470179 11.54538831 8.7603057 6.63281599 9 1 C6.03 1 3.06 1 0 1 C0 0.67 0 0.34 0 0 Z " fill="#E6E6E5" transform="translate(382,233)"/>
<path d="M0 0 C0.625 2.0625 0.625 2.0625 1 4 C2.32 4.33 3.64 4.66 5 5 C5 3.35 5 1.7 5 0 C8.20015856 -1.06671952 9.88544294 -0.94845472 13.1875 -0.5625 C14.775625 -0.376875 16.36375 -0.19125 18 0 C18 3.96 18 7.92 18 12 C15.6870518 9.6870518 15.50419025 8.52095125 14.875 5.375 C14.62363281 4.14910156 14.62363281 4.14910156 14.3671875 2.8984375 C14.24601562 2.27195313 14.12484375 1.64546875 14 1 C11.69 1 9.38 1 7 1 C7 9.91 7 18.82 7 28 C8.98 28 10.96 28 13 28 C13 24.37 13 20.74 13 17 C16.90381822 20.90381822 16.56244183 22.66179036 17 28 C19.64 28 22.28 28 25 28 C25 26.02 25 24.04 25 22 C25.33 22 25.66 22 26 22 C26 23.98 26 25.96 26 28 C28.31 28 30.62 28 33 28 C33 26.35 33 24.7 33 23 C34.98 23 36.96 23 39 23 C39 24.65 39 26.3 39 28 C41.97 27.67 44.94 27.34 48 27 C47.505 28.485 47.505 28.485 47 30 C44.36 30 41.72 30 39 30 C38.01 28.02 38.01 28.02 37 26 C36.34 26 35.68 26 35 26 C35 26.99 35 27.98 35 29 C31.73581765 30.63209118 28.14474787 30.10095518 24.5625 30.0625 C23.78583984 30.05798828 23.00917969 30.05347656 22.20898438 30.04882812 C20.13929654 30.03634939 18.06964313 30.01846064 16 30 C13.75883882 30 11.517606 30.04199857 9.27734375 30.10546875 C7.83073872 30.13331358 6.38412364 30.16063961 4.9375 30.1875 C4.20466797 30.21263672 3.47183594 30.23777344 2.71679688 30.26367188 C0.58984375 30.29296875 0.58984375 30.29296875 -3 30 C-3.66 29.01 -4.32 28.02 -5 27 C-7.15811388 27.94729537 -7.15811388 27.94729537 -9 30 C-11.70348298 30.1456618 -14.30105121 30.18633975 -17 30.125 C-17.73734375 30.11597656 -18.4746875 30.10695313 -19.234375 30.09765625 C-21.15636886 30.07310523 -23.07821082 30.03727608 -25 30 C-25.66 30 -26.32 30 -27 30 C-30 30 -33 30 -36 30 C-37.03125 30.020625 -38.0625 30.04125 -39.125 30.0625 C-42 30 -42 30 -43 29 C-43.08775605 26.85441173 -43.10695219 24.70595579 -43.09765625 22.55859375 C-43.09443359 21.25341797 -43.09121094 19.94824219 -43.08789062 18.60351562 C-43.07953401 17.2148431 -43.07106905 15.82617123 -43.0625 14.4375 C-43.05748666 13.04492344 -43.05292347 11.65234519 -43.04882812 10.25976562 C-43.03699434 6.8398013 -43.0205088 3.41992156 -43 0 C-39.37 0 -35.74 0 -32 0 C-32 0.99 -32 1.98 -32 3 C-31.01 2.67 -30.02 2.34 -29 2 C-28.67 1.34 -28.34 0.68 -28 0 C-24.7 0 -21.4 0 -18 0 C-16 4 -16 4 -16 7 C-15.01 6.67 -14.02 6.34 -13 6 C-11.77479736 2.99152582 -11.77479736 2.99152582 -11 0 C-9.54263913 -0.19491452 -8.08405407 -0.38069358 -6.625 -0.5625 C-5.81289063 -0.66691406 -5.00078125 -0.77132812 -4.1640625 -0.87890625 C-2 -1 -2 -1 0 0 Z " fill="#E4E4E3" transform="translate(294,233)"/>
<path d="M0 0 C0.33 0.66 0.66 1.32 1 2 C0.525625 2.763125 0.05125 3.52625 -0.4375 4.3125 C-3.51218665 10.16155506 -3.0009072 17.65437499 -1.15625 23.8203125 C1.96034856 30.70631067 6.73971144 36.22686314 13.796875 39.1640625 C21.95637231 41.29349229 31.49951626 41.34341594 39.0703125 37.34375 C42.48643123 34.96491428 45.23403914 32.08841743 48 29 C48.99425632 27.99428912 49.99248717 26.9924303 51 26 C49.74218176 35.36857727 45.30941026 41.8170062 37.95703125 47.6796875 C29.84411909 53.15306936 21.62365923 54.05085934 12 53 C3.70585144 51.27490849 -1.09436698 46.71833807 -6 40 C-11.08141609 32.24037873 -10.63496193 23.98784141 -10 15 C-8.4027422 8.9669291 -4.19322912 4.47277773 0 0 Z " fill="#0B4CB9" transform="translate(91,244)"/>
<path d="M0 0 C3.16627673 1.70491824 5.39018731 2.98174579 7.25390625 6.09375 C8.93677919 8.31054769 8.93677919 8.31054769 12.13671875 8.609375 C13.30847656 8.65578125 14.48023438 8.7021875 15.6875 8.75 C16.86699219 8.80671875 18.04648438 8.8634375 19.26171875 8.921875 C20.16535156 8.94765625 21.06898438 8.9734375 22 9 C22.625 11.375 22.625 11.375 23 14 C21 16 21 16 17.84765625 16.265625 C16.59855469 16.26046875 15.34945312 16.2553125 14.0625 16.25 C12.81597656 16.25515625 11.56945312 16.2603125 10.28515625 16.265625 C7 16 7 16 4 14 C4.01160156 14.85464844 4.02320312 15.70929688 4.03515625 16.58984375 C4.04417969 17.69457031 4.05320312 18.79929687 4.0625 19.9375 C4.07410156 21.03964844 4.08570312 22.14179688 4.09765625 23.27734375 C4 26 4 26 3 27 C0.46950598 27.07313567 -2.03304837 27.09247527 -4.5625 27.0625 C-5.27341797 27.05798828 -5.98433594 27.05347656 -6.71679688 27.04882812 C-8.47790013 27.03700864 -10.23896036 27.01907263 -12 27 C-12.08149592 23.97861433 -12.14073421 20.95946095 -12.1875 17.9375 C-12.21263672 17.08994141 -12.23777344 16.24238281 -12.26367188 15.36914062 C-12.32827015 9.7921559 -11.69742038 5.91805702 -9 1 C-5.89046621 -0.5547669 -3.43733239 -0.28644437 0 0 Z " fill="#0E0E0E" transform="translate(120,245)"/>
<path d="M0 0 C2.97 0 5.94 0 9 0 C9.99 4.62 10.98 9.24 12 14 C12.99 9.38 13.98 4.76 15 0 C17.97 0 20.94 0 24 0 C24 8.91 24 17.82 24 27 C22.02 27 20.04 27 18 27 C17.90293888 20.88514973 18.22959149 15.06696699 19 9 C18.34 9 17.68 9 17 9 C16.95101563 9.71285156 16.90203125 10.42570313 16.8515625 11.16015625 C16.41871477 16.70508491 15.75971184 21.72086449 14 27 C12.35 27 10.7 27 9 27 C8.01 22.05 7.02 17.1 6 12 C5.67 16.95 5.34 21.9 5 27 C3.35 27 1.7 27 0 27 C0 18.09 0 9.18 0 0 Z " fill="#1B1811" transform="translate(252,234)"/>
<path d="M0 0 C2.97 0 5.94 0 9 0 C9.33895656 1.72807318 9.67091525 3.45751974 10 5.1875 C10.185625 6.15042969 10.37125 7.11335937 10.5625 8.10546875 C10.96877612 10.7934206 11.07933572 13.28771019 11 16 C11.66 16 12.32 16 13 16 C12.95875 14.845 12.9175 13.69 12.875 12.5 C12.85912567 8.05518699 13.78206895 4.26275869 15 0 C17.97 0 20.94 0 24 0 C24 8.91 24 17.82 24 27 C22.35 27 20.7 27 19 27 C18.67 21.72 18.34 16.44 18 11 C16.26357694 16.98999418 16.26357694 16.98999418 15.375 22.9375 C15.30023438 23.70964844 15.22546875 24.48179687 15.1484375 25.27734375 C15.09945313 25.84582031 15.05046875 26.41429687 15 27 C13.02 27 11.04 27 9 27 C8.79503906 25.71222656 8.59007812 24.42445313 8.37890625 23.09765625 C8.10698348 21.41923637 7.83483649 19.7408528 7.5625 18.0625 C7.42779297 17.21236328 7.29308594 16.36222656 7.15429688 15.48632812 C7.02216797 14.67744141 6.89003906 13.86855469 6.75390625 13.03515625 C6.57323608 11.91185913 6.57323608 11.91185913 6.38891602 10.76586914 C6.16240096 8.9829115 6.16240096 8.9829115 5 8 C5 14.27 5 20.54 5 27 C3.35 27 1.7 27 0 27 C0 18.09 0 9.18 0 0 Z " fill="#14110B" transform="translate(382,234)"/>
<path d="M0 0 C11 0 11 0 15 1 C17.70590023 5.05885034 17.33132354 8.1751454 17.3125 12.9375 C17.32861328 13.74896484 17.34472656 14.56042969 17.36132812 15.39648438 C17.36423086 18.93491476 17.34942846 21.34315647 15.66796875 24.50390625 C11.08657167 28.61321558 6.39778935 27 0 27 C0 18.09 0 9.18 0 0 Z " fill="#14110C" transform="translate(221,234)"/>
<path d="M0 0 C2.31 0 4.62 0 7 0 C7.99 2.97 8.98 5.94 10 9 C10.33 6.03 10.66 3.06 11 0 C12.98 0 14.96 0 17 0 C17 8.91 17 17.82 17 27 C14.69 27 12.38 27 10 27 C9.01 24.03 8.02 21.06 7 18 C6.67 20.97 6.34 23.94 6 27 C4.02 27 2.04 27 0 27 C0 18.09 0 9.18 0 0 Z " fill="#2D2B26" transform="translate(301,234)"/>
<path d="M0 0 C2.31 0 4.62 0 7 0 C7.99 3.3 8.98 6.6 10 10 C10.33 6.7 10.66 3.4 11 0 C12.65 0 14.3 0 16 0 C16 8.58 16 17.16 16 26 C14.02 26 12.04 26 10 26 C9.70996094 25.11248047 9.70996094 25.11248047 9.4140625 24.20703125 C9.02347656 23.02173828 9.02347656 23.02173828 8.625 21.8125 C8.36976563 21.03519531 8.11453125 20.25789063 7.8515625 19.45703125 C6.98008898 16.94255032 5.9883515 14.47087874 5 12 C5 16.95 5 21.9 5 27 C3.35 27 1.7 27 0 27 C0 18.09 0 9.18 0 0 Z " fill="#25221B" transform="translate(430,234)"/>
<path d="M0 0 C2.64 0 5.28 0 8 0 C10.40152224 7.67278805 11.59378936 14.97383806 12 23 C12.66 23 13.32 23 14 23 C14 24.32 14 25.64 14 27 C11.69 27 9.38 27 7 27 C7 25.35 7 23.7 7 22 C5.02 22 3.04 22 1 22 C1 23.65 1 25.3 1 27 C-0.98 27 -2.96 27 -5 27 C-4.69055299 24.41626766 -4.37756043 21.83304867 -4.0625 19.25 C-3.97548828 18.52039063 -3.88847656 17.79078125 -3.79882812 17.0390625 C-3.37972591 13.62415558 -2.882726 10.32396457 -2 7 C-1.34 7 -0.68 7 0 7 C0 4.69 0 2.38 0 0 Z " fill="#171511" transform="translate(326,234)"/>
<path d="M0 0 C2.64 0 5.28 0 8 0 C10.40152224 7.67278805 11.59378936 14.97383806 12 23 C12.66 23 13.32 23 14 23 C14 24.32 14 25.64 14 27 C11.69 27 9.38 27 7 27 C7 25.35 7 23.7 7 22 C5.02 22 3.04 22 1 22 C1 23.65 1 25.3 1 27 C-0.98 27 -2.96 27 -5 27 C-4.7155186 24.79072956 -4.4220904 22.58261021 -4.125 20.375 C-3.96257812 19.14523438 -3.80015625 17.91546875 -3.6328125 16.6484375 C-3.04381998 13.2526411 -2.13061801 10.24596784 -1 7 C-0.62468554 4.67305036 -0.28082798 2.34023315 0 0 Z " fill="#16130E" transform="translate(284,234)"/>
<path d="M0 0 C1.9375 1.1875 1.9375 1.1875 3 3 C3.1875 5.6875 3.1875 5.6875 3 8 C1.35 8 -0.3 8 -2 8 C-2.33 7.34 -2.66 6.68 -3 6 C-4.32 5.67 -5.64 5.34 -7 5 C-6.67 10.28 -6.34 15.56 -6 21 C-5.01 21 -4.02 21 -3 21 C-2.67 19.68 -2.34 18.36 -2 17 C-2.99 17 -3.98 17 -5 17 C-5 15.35 -5 13.7 -5 12 C-2.03 12 0.94 12 4 12 C4 16.95 4 21.9 4 27 C2.1025 27.061875 0.205 27.12375 -1.75 27.1875 C-3.35101563 27.23970703 -3.35101563 27.23970703 -4.984375 27.29296875 C-8.34736544 26.96625336 -9.63641253 26.36910987 -12 24 C-13.19667203 20.40998391 -13.20538881 17.4095161 -13.25 13.625 C-13.27578125 12.31789062 -13.3015625 11.01078125 -13.328125 9.6640625 C-12.98549367 5.8380126 -12.38399806 3.97442748 -10 1 C-6.44646071 -0.1845131 -3.72986522 -0.26641894 0 0 Z " fill="#120F0A" transform="translate(355,234)"/>
<path d="M0 0 C2.64 0 5.28 0 8 0 C8.83644299 4.12437582 9.66862838 8.24959918 10.5 12.375 C10.73847656 13.550625 10.97695312 14.72625 11.22265625 15.9375 C11.56103516 17.61972656 11.56103516 17.61972656 11.90625 19.3359375 C12.11572266 20.37282715 12.32519531 21.4097168 12.54101562 22.47802734 C13 25 13 25 13 27 C11.02 27 9.04 27 7 27 C7 25.35 7 23.7 7 22 C5.02 22 3.04 22 1 22 C0.67 23.65 0.34 25.3 0 27 C-1.65 27 -3.3 27 -5 27 C-5 25.02 -5 23.04 -5 21 C-4.34 21 -3.68 21 -3 21 C-2.95101562 20.32195312 -2.90203125 19.64390625 -2.8515625 18.9453125 C-2.33435787 12.50700659 -1.40818879 6.30267023 0 0 Z " fill="#100E0A" transform="translate(205,234)"/>
<path d="M0 0 C4.95 0 9.9 0 15 0 C15 1.65 15 3.3 15 5 C12.03 5 9.06 5 6 5 C6 6.98 6 8.96 6 11 C8.64 11 11.28 11 14 11 C14 12.65 14 14.3 14 16 C11.36 16 8.72 16 6 16 C6 17.98 6 19.96 6 22 C8.97 22 11.94 22 15 22 C15 23.65 15 25.3 15 27 C10.05 27 5.1 27 0 27 C0 18.09 0 9.18 0 0 Z " fill="#1B1914" transform="translate(363,234)"/>
<path d="M0 0 C4.95 0 9.9 0 15 0 C15 1.65 15 3.3 15 5 C12.03 5 9.06 5 6 5 C6 6.98 6 8.96 6 11 C8.64 11 11.28 11 14 11 C14 12.65 14 14.3 14 16 C11.36 16 8.72 16 6 16 C6 17.98 6 19.96 6 22 C8.97 22 11.94 22 15 22 C15 23.65 15 25.3 15 27 C10.05 27 5.1 27 0 27 C0 18.09 0 9.18 0 0 Z " fill="#1B1914" transform="translate(182,234)"/>
<path d="M0 0 C4.95 0 9.9 0 15 0 C15 1.65 15 3.3 15 5 C12.03 5 9.06 5 6 5 C6 6.98 6 8.96 6 11 C8.64 11 11.28 11 14 11 C14 12.65 14 14.3 14 16 C11.36 16 8.72 16 6 16 C6 17.98 6 19.96 6 22 C8.64 22 11.28 22 14 22 C14 23.65 14 25.3 14 27 C9.38 27 4.76 27 0 27 C0 18.09 0 9.18 0 0 Z " fill="#14120D" transform="translate(411,234)"/>
<path d="M0 0 C3.63 0 7.26 0 11 0 C11 0.99 11 1.98 11 3 C11.99 2.67 12.98 2.34 14 2 C14.33 1.34 14.66 0.68 15 0 C18.3 0 21.6 0 25 0 C25 0.33 25 0.66 25 1 C22.03 1 19.06 1 16 1 C15.87625 1.969375 15.7525 2.93875 15.625 3.9375 C15.00136191 8.34815777 14.01253494 12.66477759 13 17 C12.67 17 12.34 17 12 17 C11.34 11.72 10.68 6.44 10 1 C7.03 1 4.06 1 1 1 C1 9.91 1 18.82 1 28 C2.65 28 4.3 28 6 28 C6 21.4 6 14.8 6 8 C6.33 8 6.66 8 7 8 C7.50449402 10.58252893 8.00374301 13.16588703 8.5 15.75 C8.64308594 16.47960937 8.78617187 17.20921875 8.93359375 17.9609375 C9.58888879 21.39343532 10 24.49169491 10 28 C11.65 27.67 13.3 27.34 15 27 C15.99 21.39 16.98 15.78 18 10 C18.66 10 19.32 10 20 10 C20.09706112 16.11485027 19.77040851 21.93303301 19 28 C21.31 28 23.62 28 26 28 C26.33 26.68 26.66 25.36 27 24 C27 25.32 27 26.64 27 28 C29.31 28 31.62 28 34 28 C34 26.35 34 24.7 34 23 C35.98 23 37.96 23 40 23 C40 24.65 40 26.3 40 28 C38.68 27.67 37.36 27.34 36 27 C36 27.66 36 28.32 36 29 C32.84245741 30.5787713 29.46163053 30.10183671 26 30.0625 C25.26265625 30.05798828 24.5253125 30.05347656 23.765625 30.04882812 C21.84372028 30.03655319 19.92185354 30.01863867 18 30 C17.34 30 16.68 30 16 30 C13 30 10 30 7 30 C5.96875 30.020625 4.9375 30.04125 3.875 30.0625 C1 30 1 30 0 29 C-0.08775605 26.85441173 -0.10695219 24.70595579 -0.09765625 22.55859375 C-0.09443359 21.25341797 -0.09121094 19.94824219 -0.08789062 18.60351562 C-0.07953401 17.2148431 -0.07106905 15.82617123 -0.0625 14.4375 C-0.05748666 13.04492344 -0.05292347 11.65234519 -0.04882812 10.25976562 C-0.03699434 6.8398013 -0.0205088 3.41992156 0 0 Z " fill="#EEEEED" transform="translate(251,233)"/>
<path d="M0 0 C1.45792884 -0.05399736 2.91642712 -0.09279177 4.375 -0.125 C5.18710938 -0.14820313 5.99921875 -0.17140625 6.8359375 -0.1953125 C9 0 9 0 11 2 C11 3.32 11 4.64 11 6 C11.99 6 12.98 6 14 6 C14 4.02 14 2.04 14 0 C16.58445773 -0.1081866 19.16437352 -0.18737237 21.75 -0.25 C22.47960937 -0.28351563 23.20921875 -0.31703125 23.9609375 -0.3515625 C27.23076991 -0.411014 29.59672064 -0.21968279 32.48828125 1.35546875 C34.91049712 5.59278178 34.53774065 9.77358369 34.4375 14.5625 C34.44458984 15.52091797 34.45167969 16.47933594 34.45898438 17.46679688 C34.39484535 24.50728885 34.39484535 24.50728885 32.66040039 26.67163086 C29.35111588 29.31915579 27.51387932 30.24858445 23.33203125 30.1953125 C22.43935547 30.18886719 21.54667969 30.18242187 20.62695312 30.17578125 C19.23379883 30.15064453 19.23379883 30.15064453 17.8125 30.125 C16.87212891 30.11597656 15.93175781 30.10695313 14.96289062 30.09765625 C12.64167032 30.07409056 10.32096356 30.04119116 8 30 C7.67 29.34 7.34 28.68 7 28 C8.98 28 10.96 28 13 28 C12.80664062 27.22398437 12.61328125 26.44796875 12.4140625 25.6484375 C10.43995678 17.4588306 9.06452826 9.35341586 8 1 C5.36 1 2.72 1 0 1 C0 0.67 0 0.34 0 0 Z M16 1 C16 9.91 16 18.82 16 28 C26.10557281 28.81989159 26.10557281 28.81989159 31 26 C33.0331579 22.95026315 33.2548508 22.31043132 33.265625 18.875 C33.26820313 18.08609375 33.27078125 17.2971875 33.2734375 16.484375 C33.26570313 15.66453125 33.25796875 14.8446875 33.25 14 C33.25773437 13.18015625 33.26546875 12.3603125 33.2734375 11.515625 C33.26957031 10.33226562 33.26957031 10.33226562 33.265625 9.125 C33.26336914 8.40570313 33.26111328 7.68640625 33.25878906 6.9453125 C33.1021844 4.67646562 33.1021844 4.67646562 31 2 C25.90858969 0.55535135 25.90858969 0.55535135 16 1 Z " fill="#E9E9E9" transform="translate(205,233)"/>
<path d="M0 0 C2.97 0 5.94 0 9 0 C9 8.91 9 17.82 9 27 C7.02 27 5.04 27 3 27 C3 20.4 3 13.8 3 7 C1.68 7.33 0.36 7.66 -1 8 C-0.690625 9.6396875 -0.690625 9.6396875 -0.375 11.3125 C0 15 0 15 -2 18 C-2.66 18 -3.32 18 -4 18 C-2.68 12.06 -1.36 6.12 0 0 Z " fill="#25231E" transform="translate(267,234)"/>
<path d="M0 0 C1.9375 1.1875 1.9375 1.1875 3 3 C3.5 5.875 3.5 5.875 3 9 C0.50915752 12.36996335 -0.88588865 13.81810427 -5.0625 14.5 C-9.88979896 13.67833209 -9.88979896 13.67833209 -12 11 C-12.62173485 7.87970453 -12.66024295 5.11588339 -12 2 C-8.32160187 -1.78986474 -4.88405089 -1.26623542 0 0 Z " fill="#0B0B0B" transform="translate(122,229)"/>
<path d="M0 0 C1.98 0 3.96 0 6 0 C6 7.26 6 14.52 6 22 C8.31 22 10.62 22 13 22 C13 23.32 13 24.64 13 26 C8.71 26 4.42 26 0 26 C0 17.42 0 8.84 0 0 Z " fill="#0A0803" transform="translate(166,234)"/>
<path d="M0 0 C7.26 0 14.52 0 22 0 C22 0.66 22 1.32 22 2 C23.65 2 25.3 2 27 2 C27.495 2.99 27.495 2.99 28 4 C26.2365625 3.7525 26.2365625 3.7525 24.4375 3.5 C4.88921602 1.48722817 -10.65430175 5.17503427 -27 16 C-27.69480469 16.45890625 -28.38960937 16.9178125 -29.10546875 17.390625 C-36.61947016 23.09920273 -42.02045899 32.63792648 -46 41 C-47.39195915 36.82412255 -45.82323219 34.86525224 -44 31 C-43.34 31 -42.68 31 -42 31 C-41.84337891 30.14341797 -41.84337891 30.14341797 -41.68359375 29.26953125 C-38.78384702 19.64237212 -29.05586799 13.75663731 -20.76171875 9.234375 C-12.50073014 5 -12.50073014 5 -10 5 C-9.67 4.34 -9.34 3.68 -9 3 C-6.93359375 2.5859375 -6.93359375 2.5859375 -4.4375 2.375 C-3.61121094 2.30023438 -2.78492188 2.22546875 -1.93359375 2.1484375 C-0.97646484 2.07496094 -0.97646484 2.07496094 0 2 C0 1.34 0 0.68 0 0 Z " fill="#FBFBFB" transform="translate(82,184)"/>
<path d="M0 0 C5.28 0 10.56 0 16 0 C16 1.32 16 2.64 16 4 C14.35 4.33 12.7 4.66 11 5 C10.67 11.93 10.34 18.86 10 26 C8.35 26 6.7 26 5 26 C5 18.74 5 11.48 5 4 C3.35 4 1.7 4 0 4 C0 2.68 0 1.36 0 0 Z " fill="#0A0803" transform="translate(450,234)"/>
<path d="M0 0 C0.33 0 0.66 0 1 0 C1.33 4.95 1.66 9.9 2 15 C2.99 15 3.98 15 5 15 C5.33 13.68 5.66 12.36 6 11 C5.01 11 4.02 11 3 11 C3 9.35 3 7.7 3 6 C5.97 6 8.94 6 12 6 C12 10.95 12 15.9 12 21 C0.46442308 21.37211538 0.46442308 21.37211538 -1.88671875 19.48828125 C-2.25410156 18.99714844 -2.62148438 18.50601562 -3 18 C-2.68289063 17.48953125 -2.36578125 16.9790625 -2.0390625 16.453125 C-0.66023727 13.19785341 -0.5706427 10.27156868 -0.375 6.75 C-0.30023438 5.48671875 -0.22546875 4.2234375 -0.1484375 2.921875 C-0.09945313 1.95765625 -0.05046875 0.9934375 0 0 Z " fill="#191611" transform="translate(347,240)"/>
<path d="M0 0 C5.28 0.33 10.56 0.66 16 1 C16 1.33 16 1.66 16 2 C11.05 2 6.1 2 1 2 C1 10.91 1 19.82 1 29 C-1.784375 29.020625 -4.56875 29.04125 -7.4375 29.0625 C-8.31591553 29.071604 -9.19433105 29.08070801 -10.09936523 29.09008789 C-12.06645974 29.09723091 -14.03353621 29.05031893 -16 29 C-17.74073204 27.25926796 -17.13022093 24.86908365 -17.1328125 22.50390625 C-17.13410156 21.38822266 -17.13539063 20.27253906 -17.13671875 19.12304688 C-17.13285156 17.94806641 -17.12898437 16.77308594 -17.125 15.5625 C-17.12886719 14.39138672 -17.13273438 13.22027344 -17.13671875 12.01367188 C-17.13542969 10.89669922 -17.13414062 9.77972656 -17.1328125 8.62890625 C-17.13168457 7.59838135 -17.13055664 6.56785645 -17.12939453 5.50610352 C-17 3 -17 3 -16 1 C-13.36 1 -10.72 1 -8 1 C-8 8.26 -8 15.52 -8 23 C-4.535 22.505 -4.535 22.505 -1 22 C-0.67 14.74 -0.34 7.48 0 0 Z M-15 2 C-15 10.58 -15 19.16 -15 28 C-10.71 28 -6.42 28 -2 28 C-2 26.68 -2 25.36 -2 24 C-4.31 24 -6.62 24 -9 24 C-9 16.74 -9 9.48 -9 2 C-10.98 2 -12.96 2 -15 2 Z " fill="#C7C6C5" transform="translate(181,232)"/>
<path d="M0 0 C1.32 0 2.64 0 4 0 C4 8.58 4 17.16 4 26 C2.02 26 0.04 26 -2 26 C-3.92471317 20.66164461 -5.39891424 15.65020618 -6 10 C-5.34 9.67 -4.68 9.34 -4 9 C-3.34 10.98 -2.68 12.96 -2 15 C-1.34 15 -0.68 15 0 15 C0 10.05 0 5.1 0 0 Z " fill="#080602" transform="translate(442,234)"/>
<path d="M0 0 C3.90381822 3.90381822 3.56244183 5.66179036 4 11 C6.64 11 9.28 11 12 11 C12 9.02 12 7.04 12 5 C12.33 5 12.66 5 13 5 C13 6.98 13 8.96 13 11 C15.31 11 17.62 11 20 11 C20 9.35 20 7.7 20 6 C21.98 6 23.96 6 26 6 C26 7.65 26 9.3 26 11 C30.455 10.505 30.455 10.505 35 10 C34.67 10.99 34.34 11.98 34 13 C31.36 13 28.72 13 26 13 C25.34 11.68 24.68 10.36 24 9 C23.34 9 22.68 9 22 9 C22 9.99 22 10.98 22 12 C18.73581765 13.63209118 15.14474787 13.10095518 11.5625 13.0625 C10.78583984 13.05798828 10.00917969 13.05347656 9.20898438 13.04882812 C7.13929654 13.03634939 5.06964313 13.01846064 3 13 C2.01 13 1.02 13 0 13 C-5.33333333 13 -10.66666667 13 -16 13 C-16.33 12.34 -16.66 11.68 -17 11 C-11.0885256 10.22686955 -5.8685408 9.85180723 0 11 C0 7.37 0 3.74 0 0 Z " fill="#F2F2F2" transform="translate(307,250)"/>
<path d="M0 0 C0.66 0.99 1.32 1.98 2 3 C2.99 3 3.98 3 5 3 C5.309375 3.94875 5.61875 4.8975 5.9375 5.875 C6.87394742 8.86080408 6.87394742 8.86080408 8 11 C8.039992 12.99960012 8.04346799 15.00047242 8 17 C8.66 17 9.32 17 10 17 C10 18.32 10 19.64 10 21 C7.69 21 5.38 21 3 21 C3 19.35 3 17.7 3 16 C1.02 16 -0.96 16 -3 16 C-2.01 15.01 -1.02 14.02 0 13 C-0.66 12.67 -1.32 12.34 -2 12 C-2.17835515 7.45194365 -1.99785435 4.1205746 0 0 Z " fill="#1A1813" transform="translate(288,240)"/>
<path d="M0 0 C0.66 0 1.32 0 2 0 C3.34152439 4.02457316 3.27060777 7.8055795 3 12 C2.01 12.66 1.02 13.32 0 14 C1.32 14.66 2.64 15.32 4 16 C2.02 16 0.04 16 -2 16 C-2 17.65 -2 19.3 -2 21 C-3.98 21 -5.96 21 -8 21 C-7.71749338 18.41536498 -7.4243774 15.83268865 -7.125 13.25 C-7.04636719 12.52039063 -6.96773438 11.79078125 -6.88671875 11.0390625 C-6.44863824 7.33222743 -6.0013785 4.19547828 -4 1 C-3.67 2.65 -3.34 4.3 -3 6 C-2.34 5.67 -1.68 5.34 -1 5 C-0.34444881 2.47266765 -0.34444881 2.47266765 0 0 Z " fill="#211F1A" transform="translate(329,240)"/>
<path d="M0 0 C0.99 0 1.98 0 3 0 C3.3403125 0.9590625 3.3403125 0.9590625 3.6875 1.9375 C4.85250896 4.27193661 4.85250896 4.27193661 7.625 4.75 C8.40875 4.8325 9.1925 4.915 10 5 C9 8 9 8 7 9 C7 10.98 7 12.96 7 15 C5.906875 14.814375 4.81375 14.62875 3.6875 14.4375 C0.06375867 13.7421932 0.06375867 13.7421932 -3 15 C-3.309375 13.906875 -3.61875 12.81375 -3.9375 11.6875 C-4.58337897 9.44592006 -5.2623117 7.2130649 -6 5 C-4.35 5 -2.7 5 -1 5 C-0.67 3.35 -0.34 1.7 0 0 Z " fill="#0E0E0E" transform="translate(135,234)"/>
<path d="M0 0 C0.66 0 1.32 0 2 0 C2.19393875 2.14526099 2.37998676 4.29123677 2.5625 6.4375 C2.66691406 7.63246094 2.77132812 8.82742187 2.87890625 10.05859375 C2.91886719 11.02925781 2.95882812 11.99992188 3 13 C2.67 13.33 2.34 13.66 2 14 C2.66 14.66 3.32 15.32 4 16 C2.02 16 0.04 16 -2 16 C-2.33 17.65 -2.66 19.3 -3 21 C-4.65 21 -6.3 21 -8 21 C-8 19.02 -8 17.04 -8 15 C-7.34 15 -6.68 15 -6 15 C-6 13.02 -6 11.04 -6 9 C-4.35 8.67 -2.7 8.34 -1 8 C-1.020625 6.865625 -1.04125 5.73125 -1.0625 4.5625 C-1 1 -1 1 0 0 Z " fill="#1D1B16" transform="translate(208,240)"/>
<path d="M0 0 C-0.30975468 1.77131561 -0.62290425 3.54203778 -0.9375 5.3125 C-1.19853516 6.79169922 -1.19853516 6.79169922 -1.46484375 8.30078125 C-2 11 -2 11 -3 14 C-3.66 14 -4.32 14 -5 14 C-5.268125 14.804375 -5.53625 15.60875 -5.8125 16.4375 C-6.204375 17.283125 -6.59625 18.12875 -7 19 C-7.99 19.33 -8.98 19.66 -10 20 C-10.309375 20.66 -10.61875 21.32 -10.9375 22 C-12 24 -12 24 -14.125 24.75 C-15.053125 24.87375 -15.053125 24.87375 -16 25 C-16 25.66 -16 26.32 -16 27 C-16.66 26.67 -17.32 26.34 -18 26 C-17.319375 25.34 -16.63875 24.68 -15.9375 24 C-14.95628384 23.00201092 -13.97737638 22.00174986 -13 21 C-12.41089844 20.41863281 -11.82179687 19.83726562 -11.21484375 19.23828125 C-6.46267919 14.26414723 -4.44176897 9.70079291 -3 3 C-3.47050781 3.54269531 -3.94101563 4.08539063 -4.42578125 4.64453125 C-5.04839844 5.35996094 -5.67101562 6.07539063 -6.3125 6.8125 C-6.92738281 7.52019531 -7.54226562 8.22789062 -8.17578125 8.95703125 C-12.72300746 14.04953512 -17.00425203 16.75026575 -24 17.1875 C-24.99 17.0946875 -24.99 17.0946875 -26 17 C-22.28177914 13.87981467 -18.78334051 12.98477483 -14.14453125 11.84375 C-13.43683594 11.5653125 -12.72914063 11.286875 -12 11 C-11.67 10.01 -11.34 9.02 -11 8 C-9.37660195 6.29115995 -7.70680947 4.62553283 -6 3 C-5.46375 2.401875 -4.9275 1.80375 -4.375 1.1875 C-3 0 -3 0 0 0 Z " fill="#E7E7F2" transform="translate(144,268)"/>
<path d="M0 0 C2.64 0 5.28 0 8 0 C8 1.65 8 3.3 8 5 C7.67 3.68 7.34 2.36 7 1 C5.35 1 3.7 1 2 1 C2 2.98 2 4.96 2 7 C2.66 7 3.32 7 4 7 C4.33 13.6 4.66 20.2 5 27 C3.35 27 1.7 27 0 27 C0 18.09 0 9.18 0 0 Z " fill="#0A0805" transform="translate(252,234)"/>
<path d="M0 0 C1.98 0 3.96 0 6 0 C6 1.65 6 3.3 6 5 C5.01 4.34 4.02 3.68 3 3 C2.34 4.32 1.68 5.64 1 7 C-12.53 7 -26.06 7 -40 7 C-40.33 6.34 -40.66 5.68 -41 5 C-30.11 5 -19.22 5 -8 5 C-7.67 4.34 -7.34 3.68 -7 3 C-7 3.66 -7 4.32 -7 5 C-5.02 4.67 -3.04 4.34 -1 4 C-0.67 2.68 -0.34 1.36 0 0 Z " fill="#FEFEFE" transform="translate(206,256)"/>
<path d="M0 0 C2 3 2 3 2 6 C3.32 5.67 4.64 5.34 6 5 C6.45755719 12.62595318 4.74536299 19.6029854 3 27 C2.01 27 1.02 27 0 27 C0 18.09 0 9.18 0 0 Z " fill="#F2F1F0" transform="translate(276,234)"/>
<path d="M0 0 C0.66 1.32 1.32 2.64 2 4 C-1.93959089 6.74958313 -4.91536368 7.46704551 -9.6875 7.75 C-10.82574219 7.82734375 -11.96398437 7.9046875 -13.13671875 7.984375 C-16 8 -16 8 -18 7 C-17.97679688 7.62648438 -17.95359375 8.25296875 -17.9296875 8.8984375 C-17.90261719 10.12433594 -17.90261719 10.12433594 -17.875 11.375 C-17.85179688 12.18710937 -17.82859375 12.99921875 -17.8046875 13.8359375 C-18 16 -18 16 -20 18 C-22.74485593 18.14507695 -25.38480543 18.18652423 -28.125 18.125 C-28.87910156 18.11597656 -29.63320312 18.10695313 -30.41015625 18.09765625 C-32.27357254 18.0740687 -34.13682593 18.03819719 -36 18 C-36 17.01 -36 16.02 -36 15 C-31.05 15 -26.1 15 -21 15 C-20.67 11.04 -20.34 7.08 -20 3 C-19.01 3.33 -18.02 3.66 -17 4 C-14.67059506 4.1707857 -12.33520001 4.2662825 -10 4.3125 C-8.14375 4.36857422 -8.14375 4.36857422 -6.25 4.42578125 C-2.9157112 4.33362194 -2.9157112 4.33362194 -1.0625 1.98046875 C-0.5365625 1.00013672 -0.5365625 1.00013672 0 0 Z " fill="#F0F0F0" transform="translate(144,256)"/>
<path d="M0 0 C3.63 0 7.26 0 11 0 C11 0.99 11 1.98 11 3 C11.99 2.67 12.98 2.34 14 2 C14.33 1.34 14.66 0.68 15 0 C18.3 0 21.6 0 25 0 C25 0.33 25 0.66 25 1 C22.03 1 19.06 1 16 1 C15.87625 1.969375 15.7525 2.93875 15.625 3.9375 C15.00136191 8.34815777 14.01253494 12.66477759 13 17 C12.67 17 12.34 17 12 17 C11.34 11.72 10.68 6.44 10 1 C7.03 1 4.06 1 1 1 C1 9.91 1 18.82 1 28 C0.67 28 0.34 28 0 28 C0 18.76 0 9.52 0 0 Z " fill="#D5D4D3" transform="translate(251,233)"/>
<path d="M0 0 C-0.47254115 3.14686623 -0.95413867 6.29227908 -1.4375 9.4375 C-1.57220703 10.33533203 -1.70691406 11.23316406 -1.84570312 12.15820312 C-1.97783203 13.01220703 -2.10996094 13.86621094 -2.24609375 14.74609375 C-2.36654053 15.53685303 -2.4869873 16.3276123 -2.61108398 17.14233398 C-3 19 -3 19 -4 20 C-5.66617115 20.04063832 -7.33388095 20.042721 -9 20 C-9.05399736 18.54207116 -9.09279177 17.08357288 -9.125 15.625 C-9.15980469 14.40683594 -9.15980469 14.40683594 -9.1953125 13.1640625 C-9 11 -9 11 -7 9 C-7 9.66 -7 10.32 -7 11 C-6.34 11 -5.68 11 -5 11 C-3.95994298 7.61981469 -3.91995518 4.5219721 -4 1 C-2 0 -2 0 0 0 Z " fill="#171511" transform="translate(270,241)"/>
<path d="M0 0 C0.99 0.33 1.98 0.66 3 1 C3.0825 1.78375 3.165 2.5675 3.25 3.375 C3.71525923 6.14044802 3.71525923 6.14044802 6 7.1875 C6.66 7.455625 7.32 7.72375 8 8 C8.33 8.66 8.66 9.32 9 10 C7.02 10 5.04 10 3 10 C3 11.98 3 13.96 3 16 C1.02 16 -0.96 16 -3 16 C-2.69177379 13.7077546 -2.37829126 11.41621545 -2.0625 9.125 C-1.88847656 7.84882813 -1.71445312 6.57265625 -1.53515625 5.2578125 C-1 2 -1 2 0 0 Z " fill="#0F0D09" transform="translate(282,245)"/>
<path d="M0 0 C4.54278036 3.59849455 8.12260408 6.93578319 11 12 C11 12.66 11 13.32 11 14 C11.66 14 12.32 14 13 14 C13.67812114 15.8708878 14.3419946 17.74694293 15 19.625 C15.556875 21.19121094 15.556875 21.19121094 16.125 22.7890625 C17.00483564 26.01774506 17.15988262 28.67244294 17 32 C17.66 32 18.32 32 19 32 C19 34.64 19 37.28 19 40 C17.68 40.66 16.36 41.32 15 42 C15 41.34 15 40.68 15 40 C15.66 40 16.32 40 17 40 C15.75177786 26.85062535 11.1009522 12.81770213 1.32421875 3.3828125 C0 2 0 2 0 0 Z " fill="#FBFBFC" transform="translate(133,201)"/>
<path d="M0 0 C0 1.65 0 3.3 0 5 C1.65 5.33 3.3 5.66 5 6 C4.67 9.3 4.34 12.6 4 16 C2.02 16 0.04 16 -2 16 C-2.41644184 13.89981487 -2.80753303 11.79458958 -3.1875 9.6875 C-3.51814453 7.92986328 -3.51814453 7.92986328 -3.85546875 6.13671875 C-4 3 -4 3 -2.61328125 1.08203125 C-1 0 -1 0 0 0 Z " fill="#1D1A16" transform="translate(393,245)"/>
<path d="M0 0 C2.475 0.495 2.475 0.495 5 1 C5.02692484 3.29160319 5.04636124 5.58329546 5.0625 7.875 C5.07410156 9.15117187 5.08570313 10.42734375 5.09765625 11.7421875 C5 15 5 15 4 17 C2.68 17 1.36 17 0 17 C0 11.39 0 5.78 0 0 Z " fill="#DEDEDD" transform="translate(227,239)"/>
<path d="M0 0 C5.61 0 11.22 0 17 0 C17 9.24 17 18.48 17 28 C14.69 28 12.38 28 10 28 C10 27.67 10 27.34 10 27 C11.98 27 13.96 27 16 27 C16 18.42 16 9.84 16 1 C14.35 1 12.7 1 11 1 C11 4.63 11 8.26 11 12 C7.09618178 8.09618178 7.43755817 6.33820964 7 1 C4.69 1 2.38 1 0 1 C0 0.67 0 0.34 0 0 Z " fill="#B3B3B1" transform="translate(430,233)"/>
<path d="M0 0 C3.63 0 7.26 0 11 0 C11 0.33 11 0.66 11 1 C8.03 1 5.06 1 2 1 C2 8.92 2 16.84 2 25 C4.97 25 7.94 25 11 25 C11 25.66 11 26.32 11 27 C7.37 27 3.74 27 0 27 C0 18.09 0 9.18 0 0 Z " fill="#191715" transform="translate(221,234)"/>
<path d="M0 0 C2.64 0 5.28 0 8 0 C8.1875 2.875 8.1875 2.875 8 6 C7.01 6.66 6.02 7.32 5 8 C5 7.34 5 6.68 5 6 C4.34 6 3.68 6 3 6 C2.67 9.63 2.34 13.26 2 17 C-1.41794232 12.44274358 -1.2800783 11.63707547 -0.6875 6.25 C-0.56761719 5.07953125 -0.44773437 3.9090625 -0.32421875 2.703125 C-0.21722656 1.81109375 -0.11023438 0.9190625 0 0 Z " fill="#0A0804" transform="translate(326,234)"/>
<path d="M0 0 C1.62463842 -0.05395478 3.24978541 -0.09277195 4.875 -0.125 C5.77992188 -0.14820313 6.68484375 -0.17140625 7.6171875 -0.1953125 C10 0 10 0 12 2 C12.33 1.34 12.66 0.68 13 0 C16.63 0 20.26 0 24 0 C24 0.33 24 0.66 24 1 C21.03 1 18.06 1 15 1 C14.34 6.28 13.68 11.56 13 17 C12.34 17 11.68 17 11 17 C9.61470179 11.54538831 8.7603057 6.63281599 9 1 C6.03 1 3.06 1 0 1 C0 0.67 0 0.34 0 0 Z " fill="#D2D1D0" transform="translate(382,233)"/>
<path d="M0 0 C1.32 0.33 2.64 0.66 4 1 C3.01 1 2.02 1 1 1 C1.11362262 2.4800841 1.24122908 3.95910074 1.375 5.4375 C1.44460938 6.26121094 1.51421875 7.08492187 1.5859375 7.93359375 C1.72257812 8.61550781 1.85921875 9.29742187 2 10 C2.66 10.33 3.32 10.66 4 11 C4 15.95 4 20.9 4 26 C2.68 26 1.36 26 0 26 C0 17.42 0 8.84 0 0 Z " fill="#050300" transform="translate(302,234)"/>
<path d="M0 0 C1.98 0 3.96 0 6 0 C5.67 1.32 5.34 2.64 5 4 C5 3.01 5 2.02 5 1 C4.01 1 3.02 1 2 1 C2 8.92 2 16.84 2 25 C2.66 25 3.32 25 4 25 C4 23.35 4 21.7 4 20 C4.33 20 4.66 20 5 20 C5 22.31 5 24.62 5 27 C3.35 27 1.7 27 0 27 C0 18.09 0 9.18 0 0 Z " fill="#14120F" transform="translate(430,234)"/>
<path d="M0 0 C0.33 0 0.66 0 1 0 C1 1.98 1 3.96 1 6 C3.31 6 5.62 6 8 6 C8 4.35 8 2.7 8 1 C9.98 1 11.96 1 14 1 C14 2.65 14 4.3 14 6 C18.455 5.505 18.455 5.505 23 5 C22.67 5.99 22.34 6.98 22 8 C19.36 8 16.72 8 14 8 C13.34 6.68 12.68 5.36 12 4 C11.34 4 10.68 4 10 4 C10 4.99 10 5.98 10 7 C6.98675805 8.50662097 4.31713623 8.17770373 1 8 C0.34 7.34 -0.32 6.68 -1 6 C-0.625 2.875 -0.625 2.875 0 0 Z " fill="#F9F9F9" transform="translate(319,255)"/>
<path d="M0 0 C2.64 0 5.28 0 8 0 C8 8.91 8 17.82 8 27 C6.35 27 4.7 27 3 27 C3 26.34 3 25.68 3 25 C3.99 25 4.98 25 6 25 C6 17.08 6 9.16 6 1 C4.35 1 2.7 1 1 1 C0.67 1.99 0.34 2.98 0 4 C0 2.68 0 1.36 0 0 Z " fill="#1D1C19" transform="translate(398,234)"/>
<path d="M0 0 C2.31 0 4.62 0 7 0 C6.67 0.66 6.34 1.32 6 2 C4.68 1.67 3.36 1.34 2 1 C2 8.92 2 16.84 2 25 C2.66 25 3.32 25 4 25 C4.33 24.34 4.66 23.68 5 23 C5 24.32 5 25.64 5 27 C3.35 27 1.7 27 0 27 C0 18.09 0 9.18 0 0 Z " fill="#1B1A17" transform="translate(382,234)"/>
<path d="M0 0 C0.26941406 0.54527344 0.53882812 1.09054687 0.81640625 1.65234375 C2.15559056 4.30861362 3.53481922 6.93916571 4.9375 9.5625 C5.44152344 10.51253906 5.94554688 11.46257812 6.46484375 12.44140625 C9.09243166 16.82071943 10.9805842 18.24772654 15.9375 19.5 C19.62560854 20.43454334 22.06925605 21.55204682 25 24 C17.38505064 23.69901386 12.69633582 22.73540914 7.15234375 17.1328125 C2.94704825 12.55620754 0.11603665 9.07497126 -0.125 2.6875 C-0.08375 1.800625 -0.0425 0.91375 0 0 Z " fill="#EBF1FB" transform="translate(89,261)"/>
<path d="M0 0 C0.50367757 1.45706726 1.00282556 2.91570096 1.5 4.375 C1.91765625 5.59316406 1.91765625 5.59316406 2.34375 6.8359375 C3 9 3 9 3 11 C1.25 11.625 1.25 11.625 -1 12 C-2.32 11.34 -3.64 10.68 -5 10 C-5 7.03 -5 4.06 -5 1 C-2 0 -2 0 0 0 Z " fill="#1C1914" transform="translate(308,234)"/>
<path d="M0 0 C0.66 0 1.32 0 2 0 C1.86722656 0.65226563 1.73445313 1.30453125 1.59765625 1.9765625 C1.42105469 2.85054687 1.24445312 3.72453125 1.0625 4.625 C0.88847656 5.48351562 0.71445312 6.34203125 0.53515625 7.2265625 C0.35855469 8.14179688 0.18195312 9.05703125 0 10 C-0.185625 10.9075 -0.37125 11.815 -0.5625 12.75 C-1.13156758 16.97735915 -1.10665404 21.11583319 -1.0625 25.375 C-1.05798828 26.20644531 -1.05347656 27.03789062 -1.04882812 27.89453125 C-1.03713164 29.92971897 -1.01919935 31.96486923 -1 34 C-3.67733998 31.32968716 -4.00280229 29.96278559 -4.29296875 26.109375 C-4.27314945 24.65595991 -4.23754845 23.20268833 -4.1875 21.75 C-4.17396484 21.00492188 -4.16042969 20.25984375 -4.14648438 19.4921875 C-4.11127204 17.66114584 -4.05746851 15.83047831 -4 14 C-3.34 14 -2.68 14 -2 14 C-1.93941406 13.32453125 -1.87882812 12.6490625 -1.81640625 11.953125 C-1.73261719 11.06109375 -1.64882813 10.1690625 -1.5625 9.25 C-1.48128906 8.36828125 -1.40007813 7.4865625 -1.31640625 6.578125 C-1.03761535 4.30649548 -0.61209423 2.20148177 0 0 Z " fill="#F8F9F9" transform="translate(33,225)"/>
<path d="M0 0 C2.24893954 -0.10823773 4.49937575 -0.18569645 6.75 -0.25 C8.00296875 -0.29640625 9.2559375 -0.3428125 10.546875 -0.390625 C14 0 14 0 16.42578125 1.35546875 C18.93875664 5.57701797 18.53827957 9.74783724 18.4375 14.5625 C18.44458984 15.52091797 18.45167969 16.47933594 18.45898438 17.46679688 C18.39505785 24.48396218 18.39505785 24.48396218 16.60961914 26.81616211 C15 28 15 28 12.8125 27.6875 C12.214375 27.460625 11.61625 27.23375 11 27 C11.99 26.67 12.98 26.34 14 26 C16.04209893 22.93685161 16.25016253 22.3225707 16.23046875 18.875 C16.22756836 17.69164062 16.22756836 17.69164062 16.22460938 16.484375 C16.21236328 15.66453125 16.20011719 14.8446875 16.1875 14 C16.18685547 13.18015625 16.18621094 12.3603125 16.18554688 11.515625 C16.15984783 8.02055551 16.1158005 5.34740151 15 2 C10.05 1.67 5.1 1.34 0 1 C0 0.67 0 0.34 0 0 Z " fill="#D4D4D2" transform="translate(221,233)"/>
<path d="M0 0 C0.33 0.99 0.66 1.98 1 3 C1.66 3 2.32 3 3 3 C3 3.66 3 4.32 3 5 C3.66 5.33 4.32 5.66 5 6 C5.33 5.34 5.66 4.68 6 4 C6.33 9.28 6.66 14.56 7 20 C6.01 19.67 5.02 19.34 4 19 C3.1813008 16.64021996 2.56113555 14.42076658 2 12 C1.81308594 11.30648437 1.62617188 10.61296875 1.43359375 9.8984375 C0.51106718 6.45347815 0 3.58994399 0 0 Z " fill="#F9F8F8" transform="translate(335,236)"/>
<path d="M0 0 C0.82810601 6.81508864 1.50413785 12.51870203 -1 19 C-1.33 19 -1.66 19 -2 19 C-2.33895656 17.27192682 -2.67091525 15.54248026 -3 13.8125 C-3.185625 12.84957031 -3.37125 11.88664063 -3.5625 10.89453125 C-3.97222023 8.18379297 -4.1850992 5.73377285 -4 3 C-1.62068966 0 -1.62068966 0 0 0 Z " fill="#23201D" transform="translate(262,238)"/>
<path d="M0 0 C2 2 2 2 2.125 4.625 C2.08375 5.40875 2.0425 6.1925 2 7 C0.35 7 -1.3 7 -3 7 C-3.33 6.34 -3.66 5.68 -4 5 C-4.99 4.34 -5.98 3.68 -7 3 C-7 2.01 -7 1.02 -7 0 C-3.85179059 -1.04940314 -3.00659136 -1.066855 0 0 Z " fill="#1A1710" transform="translate(356,235)"/>
<path d="M0 0 C0.66 0 1.32 0 2 0 C-0.14582726 6.22073156 -4.34514809 10.97474261 -10.12890625 14.1796875 C-13.7671914 15.62947855 -17.0942883 16.36616047 -21 16 C-17.28177914 12.87981467 -13.78334051 11.98477483 -9.14453125 10.84375 C-8.43683594 10.5653125 -7.72914063 10.286875 -7 10 C-6.67 9.01 -6.34 8.02 -6 7 C-4.3540349 5.31288577 -2.68762851 3.6454378 -1 2 C-0.67 1.34 -0.34 0.68 0 0 Z " fill="#EFF0F6" transform="translate(139,269)"/>
<path d="M0 0 C0.96164062 0.01546875 1.92328125 0.0309375 2.9140625 0.046875 C5.375 0.25 5.375 0.25 7.375 1.25 C7.045 2.24 6.715 3.23 6.375 4.25 C5.715 3.59 5.055 2.93 4.375 2.25 C0.2424838 1.94388769 -3.18338686 1.73497501 -6.625 4.25 C-7.81195553 7.81086658 -7.97595418 11.22331024 -8.1875 14.9375 C-8.23068359 15.63939453 -8.27386719 16.34128906 -8.31835938 17.06445312 C-8.4241736 18.79275206 -8.52506581 20.5213511 -8.625 22.25 C-8.955 22.25 -9.285 22.25 -9.625 22.25 C-9.74113204 19.14614789 -9.81222029 16.04285338 -9.875 12.9375 C-9.90851563 12.05642578 -9.94203125 11.17535156 -9.9765625 10.26757812 C-10.07470408 3.81476921 -10.07470408 3.81476921 -7.9609375 1.16015625 C-5.14902001 0.06454291 -3.01459153 -0.08125584 0 0 Z " fill="#D1D1CF" transform="translate(350.625,232.75)"/>
<path d="M0 0 C3 2 3 2 3.73046875 5.4765625 C3.89648293 6.85780047 4.04831396 8.24080122 4.1875 9.625 C4.26935547 10.33140625 4.35121094 11.0378125 4.43554688 11.765625 C4.63580725 13.5090683 4.81949401 15.25440086 5 17 C4.34 16.67 3.68 16.34 3 16 C2.34 17.32 1.68 18.64 1 20 C0.29867087 13.29980211 -0.11044961 6.73742646 0 0 Z " fill="#9E9C99" transform="translate(386,241)"/>
<path d="M0 0 C2.65262179 1.32631089 3.21099749 2.85343108 4.625 5.4375 C5.07101563 6.24058594 5.51703125 7.04367187 5.9765625 7.87109375 C7 10 7 10 7 12 C7.66 12 8.32 12 9 12 C10.65625 13.6796875 10.65625 13.6796875 12.5 15.875 C14.28933258 17.99035504 16.04019124 20.04019124 18 22 C12.69229065 21.35471342 10.98510293 19.24686121 7.7109375 15.2578125 C0.54372252 5.79970689 0.54372252 5.79970689 0 0 Z " fill="#F9F9FA" transform="translate(35,269)"/>
<path d="M0 0 C2.62451617 2.62451617 2.5832868 4.4877828 3.125 8.125 C3.29257812 9.22070312 3.46015625 10.31640625 3.6328125 11.4453125 C3.75398438 12.28835937 3.87515625 13.13140625 4 14 C3.34 14 2.68 14 2 14 C1.67 12.68 1.34 11.36 1 10 C0.34 10 -0.32 10 -1 10 C-1.33 10.99 -1.66 11.98 -2 13 C-3.45295405 4.80743982 -3.45295405 4.80743982 -1.5625 1.4375 C-1.046875 0.963125 -0.53125 0.48875 0 0 Z " fill="#1C1914" transform="translate(334,238)"/>
<path d="M0 0 C0.33 0 0.66 0 1 0 C1 6.27 1 12.54 1 19 C0.34 19 -0.32 19 -1 19 C-1.144375 18.2575 -1.28875 17.515 -1.4375 16.75 C-1.91483236 14.12517414 -1.91483236 14.12517414 -2.625 12.15625 C-3.11819701 9.32036717 -2.45702106 7.46934401 -1.5625 4.75 C-1.27503906 3.85796875 -0.98757813 2.9659375 -0.69140625 2.046875 C-0.46324219 1.37140625 -0.23507812 0.6959375 0 0 Z " fill="#B6B5B3" transform="translate(400,242)"/>
<path d="M0 0 C0.66 0.33 1.32 0.66 2 1 C1.65066406 1.53109375 1.30132812 2.0621875 0.94140625 2.609375 C0.48636719 3.31578125 0.03132813 4.0221875 -0.4375 4.75 C-0.88996094 5.44609375 -1.34242187 6.1421875 -1.80859375 6.859375 C-2.97080774 8.94754965 -3.51051763 10.67735817 -4 13 C-5.16271958 16.10058555 -6.47597334 19.06080574 -8 22 C-9.61515855 18.76968291 -8.13962133 16.14792164 -7.1015625 12.8203125 C-5.2996902 8.20700823 -2.71311845 4.12674974 0 0 Z " fill="#AFB5BC" transform="translate(42,213)"/>
<path d="M0 0 C1 3 1 3 -0.1875 6.625 C-2 10 -2 10 -3.875 10.8125 C-4.57625 10.874375 -5.2775 10.93625 -6 11 C-7.6744239 11.6469365 -9.34302621 12.30959426 -11 13 C-10.62488281 12.56429688 -10.24976563 12.12859375 -9.86328125 11.6796875 C-6.54140223 7.81392401 -3.25357073 3.92342352 0 0 Z " fill="#30318E" transform="translate(141,270)"/>
<path d="M0 0 C1.485 0.99 1.485 0.99 3 2 C3.29296875 5.0390625 3.29296875 5.0390625 3.1875 8.625 C3.16042969 9.81351563 3.13335937 11.00203125 3.10546875 12.2265625 C3.07066406 13.14179688 3.03585937 14.05703125 3 15 C2.01 15 1.02 15 0 15 C0 10.05 0 5.1 0 0 Z " fill="#0A0700" transform="translate(401,244)"/>
<path d="M0 0 C0.98120464 3.05263664 0.98120464 4.94736336 0 8 C-3.60993172 9.13480527 -6.9842327 9.10015767 -10.75 9.0625 C-11.92046875 9.05347656 -13.0909375 9.04445313 -14.296875 9.03515625 C-15.18890625 9.02355469 -16.0809375 9.01195312 -17 9 C-17 8.01 -17 7.02 -17 6 C-12.05 6 -7.1 6 -2 6 C-1.34 4.02 -0.68 2.04 0 0 Z " fill="#FCFCFC" transform="translate(125,265)"/>
<path d="M0 0 C1.32 0.33 2.64 0.66 4 1 C2.68 1.33 1.36 1.66 0 2 C0 1.34 0 0.68 0 0 Z M-2 2 C0.00720923 2.28674418 2.0085944 2.61866701 4 3 C3.03320312 3.52013672 3.03320312 3.52013672 2.046875 4.05078125 C-0.92471968 6.88060137 -0.60235264 9.1641093 -0.75 13.1875 C-0.80671875 14.45980469 -0.8634375 15.73210937 -0.921875 17.04296875 C-0.94765625 18.01878906 -0.9734375 18.99460938 -1 20 C-1.33 20 -1.66 20 -2 20 C-2.16798051 17.72926348 -2.33434113 15.45840707 -2.5 13.1875 C-2.5928125 11.92292969 -2.685625 10.65835938 -2.78125 9.35546875 C-2.91914781 7.24021483 -3 5.11974408 -3 3 C-2.67 2.67 -2.34 2.34 -2 2 Z " fill="#040301" transform="translate(348,234)"/>
<path d="M0 0 C3.63 0 7.26 0 11 0 C11 3.96 11 7.92 11 12 C8.6870518 9.6870518 8.50419025 8.52095125 7.875 5.375 C7.70742188 4.55773437 7.53984375 3.74046875 7.3671875 2.8984375 C7.24601562 2.27195313 7.12484375 1.64546875 7 1 C4.69 1 2.38 1 0 1 C0 0.67 0 0.34 0 0 Z " fill="#EAEAEA" transform="translate(301,233)"/>
<path d="M0 0 C1.98 0.99 3.96 1.98 6 3 C6 3.66 6 4.32 6 5 C6.69867188 5.12117188 7.39734375 5.24234375 8.1171875 5.3671875 C9.48230469 5.61855469 9.48230469 5.61855469 10.875 5.875 C11.77992187 6.03742188 12.68484375 6.19984375 13.6171875 6.3671875 C16 7 16 7 18 9 C13.03083364 8.48594831 8.70973649 7.76615118 4 6 C4 5.34 4 4.68 4 4 C2.68 3.34 1.36 2.68 0 2 C0 1.34 0 0.68 0 0 Z " fill="#D1D1D1" transform="translate(70,299)"/>
<path d="M0 0 C0.33 0 0.66 0 1 0 C1 3.96 1 7.92 1 12 C2.32 12 3.64 12 5 12 C4.67 13.65 4.34 15.3 4 17 C2.68 16.67 1.36 16.34 0 16 C0 10.72 0 5.44 0 0 Z " fill="#D8D8D7" transform="translate(348,239)"/>
<path d="M0 0 C0.66 0 1.32 0 2 0 C3.17571451 3.67410785 3.07366746 7.16929183 3 11 C1.68 11 0.36 11 -1 11 C-0.67 7.37 -0.34 3.74 0 0 Z " fill="#B4B3B1" transform="translate(329,240)"/>
<path d="M0 0 C2.67927341 4.01891012 2.15601248 6.24161923 2 11 C0.68 11 -0.64 11 -2 11 C-1.85892253 9.54119891 -1.71197585 8.08296449 -1.5625 6.625 C-1.48128906 5.81289062 -1.40007812 5.00078125 -1.31640625 4.1640625 C-1 2 -1 2 0 0 Z " fill="#B5B3B1" transform="translate(288,240)"/>
<path d="M0 0 C1 2 1 2 0.3984375 4.12890625 C-0.61521686 6.53923704 -1.60692219 8.78491976 -3 11 C-5.75 12.0625 -5.75 12.0625 -8 12 C-6.49087042 7.01987239 -3.44338151 3.75740058 0 0 Z " fill="#176CD5" transform="translate(91,244)"/>
<path d="M0 0 C0.99 0.495 0.99 0.495 2 1 C2.625 4.0625 2.625 4.0625 3 7 C3.99 7 4.98 7 6 7 C6.66 8.98 7.32 10.96 8 13 C6.35 13 4.7 13 3 13 C3 11.68 3 10.36 3 9 C2.34 9 1.68 9 1 9 C0.67 6.03 0.34 3.06 0 0 Z " fill="#DCDBDA" transform="translate(337,248)"/>
<path d="M0 0 C0.66 0 1.32 0 2 0 C2.35050464 5.841744 2.16727335 9.8531808 -1 15 C-2.20220203 11.46905698 -1.79532349 8.87101018 -1.0625 5.25 C-0.86785156 4.26515625 -0.67320312 3.2803125 -0.47265625 2.265625 C-0.31667969 1.51796875 -0.16070312 0.7703125 0 0 Z " fill="#BCBAB8" transform="translate(269,243)"/>
<path d="M0 0 C0.66 1.32 1.32 2.64 2 4 C-2.62 4 -7.24 4 -12 4 C-12 3.34 -12 2.68 -12 2 C-8.04 2 -4.08 2 0 2 C0 1.34 0 0.68 0 0 Z " fill="#201F1C" transform="translate(423,257)"/>
<path d="M0 0 C0.33 0 0.66 0 1 0 C1.22151549 1.79008467 1.42682213 3.58218162 1.625 5.375 C1.74101562 6.37273437 1.85703125 7.37046875 1.9765625 8.3984375 C1.98429688 9.25695312 1.99203125 10.11546875 2 11 C1.34 11.66 0.68 12.32 0 13 C-1.18306728 10.63386544 -1.13354608 9.13219264 -1.125 6.5 C-1.12757813 5.7059375 -1.13015625 4.911875 -1.1328125 4.09375 C-1 2 -1 2 0 0 Z " fill="#050301" transform="translate(212,238)"/>
<path d="M0 0 C0.66 0.33 1.32 0.66 2 1 C0.78192862 2.15762119 -0.45001235 3.3006583 -1.6875 4.4375 C-2.71423828 5.39462891 -2.71423828 5.39462891 -3.76171875 6.37109375 C-6.22289422 8.16221098 -8.00816574 8.62798558 -11 9 C-8.47211993 6.20127563 -6.79588866 4.54226981 -3 4 C-3 3.34 -3 2.68 -3 2 C-2.01 1.34 -1.02 0.68 0 0 Z " fill="#1F288F" transform="translate(133,285)"/>
<path d="M0 0 C0.33 0 0.66 0 1 0 C1.33 3.63 1.66 7.26 2 11 C0.68 11 -0.64 11 -2 11 C-1.85892253 9.54119891 -1.71197585 8.08296449 -1.5625 6.625 C-1.48128906 5.81289062 -1.40007812 5.00078125 -1.31640625 4.1640625 C-1 2 -1 2 0 0 Z " fill="#CDCCCA" transform="translate(209,240)"/>
<path d="M0 0 C1.99097846 2.98646769 2.94124926 5.59687262 4 9 C1.37812506 7.95125002 0.20628639 7.35068687 -1.25 4.875 C-1.4975 4.25625 -1.745 3.6375 -2 3 C-1.34 2.01 -0.68 1.02 0 0 Z " fill="#A5ABB4" transform="translate(47,279)"/>
<path d="M0 0 C-9.41002278 4.59225513 -9.41002278 4.59225513 -14 4 C-9.9547574 0.44018651 -5.26757827 -1.75585942 0 0 Z " fill="#E5E7F3" transform="translate(132,281)"/>
<path d="M0 0 C3 3 3 3 3.07421875 6.35546875 C2.94660156 7.62003906 2.81898438 8.88460937 2.6875 10.1875 C2.56761719 11.45980469 2.44773437 12.73210937 2.32421875 14.04296875 C2.21722656 15.01878906 2.11023438 15.99460937 2 17 C1.67 17 1.34 17 1 17 C0.67 11.39 0.34 5.78 0 0 Z " fill="#9B9A96" transform="translate(434,244)"/>
<path d="M0 0 C2.29013653 3.4352048 2.17842973 4.985331 2 9 C1.34 8.01 0.68 7.02 0 6 C-0.33 8.31 -0.66 10.62 -1 13 C-1.33 13 -1.66 13 -2 13 C-2.33 10.03 -2.66 7.06 -3 4 C-2.34 3.67 -1.68 3.34 -1 3 C-0.67 2.01 -0.34 1.02 0 0 Z " fill="#2C2823" transform="translate(212,234)"/>
<path d="M0 0 C-0.33 1.98 -0.66 3.96 -1 6 C-1.33 4.68 -1.66 3.36 -2 2 C-4.64 2 -7.28 2 -10 2 C-10 4.31 -10 6.62 -10 9 C-10.33 9 -10.66 9 -11 9 C-11 6.36 -11 3.72 -11 1 C-9.54182203 0.83197949 -8.0834516 0.66562857 -6.625 0.5 C-5.81289063 0.4071875 -5.00078125 0.314375 -4.1640625 0.21875 C-2 0 -2 0 0 0 Z " fill="#BCBBB9" transform="translate(336,232)"/>
<path d="M0 0 C1.98 0 3.96 0 6 0 C6 1.65 6 3.3 6 5 C3.03 4.505 3.03 4.505 0 4 C0 2.68 0 1.36 0 0 Z " fill="#EBEBEB" transform="translate(285,256)"/>
<path d="M0 0 C1.98 0 3.96 0 6 0 C6 1.65 6 3.3 6 5 C5.01 4.34 4.02 3.68 3 3 C1.02 3.99 1.02 3.99 -1 5 C-0.67 3.35 -0.34 1.7 0 0 Z " fill="#E5E5E4" transform="translate(206,256)"/>
<path d="M0 0 C0.66 0.33 1.32 0.66 2 1 C1.67 3.97 1.34 6.94 1 10 C-1.09749995 7.64031256 -1.96905704 6.45383006 -2.1875 3.25 C-2.125625 2.5075 -2.06375 1.765 -2 1 C-1.34 0.67 -0.68 0.34 0 0 Z " fill="#050300" transform="translate(285,241)"/>
<path d="M0 0 C2.64 0.33 5.28 0.66 8 1 C8 1.66 8 2.32 8 3 C8.66 3.33 9.32 3.66 10 4 C9.01 4.33 8.02 4.66 7 5 C7 4.34 7 3.68 7 3 C6.030625 2.87625 5.06125 2.7525 4.0625 2.625 C3.051875 2.41875 2.04125 2.2125 1 2 C0.67 1.34 0.34 0.68 0 0 Z " fill="#C2C7CB" transform="translate(108,189)"/>
<path d="M0 0 C0.12375 0.5775 0.2475 1.155 0.375 1.75 C0.91843033 4.03560051 0.91843033 4.03560051 2.125 6.0625 C3 8 3 8 2 11 C-1.03333922 7.96666078 -0.6646334 5.2256192 -1 1 C-0.67 0.67 -0.34 0.34 0 0 Z " fill="#A5AAB3" transform="translate(35,260)"/>
<path d="M0 0 C0.99 0 1.98 0 3 0 C2.51171875 6.0546875 2.51171875 6.0546875 2 8 C1.01 8.66 0.02 9.32 -1 10 C-0.67 6.7 -0.34 3.4 0 0 Z " fill="#D1CEE5" transform="translate(141,268)"/>
<path d="M0 0 C0.66 0.33 1.32 0.66 2 1 C0.02 3.97 -1.96 6.94 -4 10 C-4.33 9.34 -4.66 8.68 -5 8 C-4.00390625 6.0546875 -4.00390625 6.0546875 -2.5625 3.875 C-2.08941406 3.15054688 -1.61632813 2.42609375 -1.12890625 1.6796875 C-0.75636719 1.12539062 -0.38382813 0.57109375 0 0 Z " fill="#C3C4C8" transform="translate(42,213)"/>
<path d="M0 0 C3.36591866 1.44253657 5.51047079 3.33264727 8 6 C7.67 6.66 7.34 7.32 7 8 C5.8274869 7.04882866 4.66212985 6.08882991 3.5 5.125 C2.8503125 4.59132813 2.200625 4.05765625 1.53125 3.5078125 C1.0259375 3.01023437 0.520625 2.51265625 0 2 C0 1.34 0 0.68 0 0 Z " fill="#E6E6E6" transform="translate(62,293)"/>
<path d="M0 0 C0.33 0 0.66 0 1 0 C1.103125 1.11375 1.20625 2.2275 1.3125 3.375 C1.539375 4.57125 1.76625 5.7675 2 7 C2.99 7.66 3.98 8.32 5 9 C3.02 9 1.04 9 -1 9 C-0.67 6.03 -0.34 3.06 0 0 Z " fill="#3A3733" transform="translate(280,252)"/>
<path d="M0 0 C0.99 0 1.98 0 3 0 C3 1.98 3 3.96 3 6 C2.01 6 1.02 6 0 6 C0 4.02 0 2.04 0 0 Z " fill="#030200" transform="translate(395,245)"/>
<path d="M0 0 C-0.33 1.65 -0.66 3.3 -1 5 C-1.66 5 -2.32 5 -3 5 C-3.33 5.66 -3.66 6.32 -4 7 C-4 5.02 -4 3.04 -4 1 C-2 0 -2 0 0 0 Z " fill="#060502" transform="translate(270,241)"/>
<path d="M0 0 C0.66 0.66 1.32 1.32 2 2 C1.75 4.0625 1.75 4.0625 1 6 C0.01 6.495 0.01 6.495 -1 7 C-1.66 6.67 -2.32 6.34 -3 6 C-2 4 -1 2 0 0 Z " fill="#292621" transform="translate(334,238)"/>
<path d="M0 0 C1.98 0.495 1.98 0.495 4 1 C4 2.65 4 4.3 4 6 C2.35 6 0.7 6 -1 6 C-0.01 5.67 0.98 5.34 2 5 C1.34 3.35 0.68 1.7 0 0 Z " fill="#0E0C09" transform="translate(354,236)"/>
<path d="M0 0 C3 1 3 1 5 4 C5 4.99 5 5.98 5 7 C4.34 7 3.68 7 3 7 C2.67 5.68 2.34 4.36 2 3 C1.34 3 0.68 3 0 3 C0 2.01 0 1.02 0 0 Z " fill="#BDC4C7" transform="translate(139,212)"/>
<path d="M0 0 C0.33 0 0.66 0 1 0 C1 1.65 1 3.3 1 5 C0.67 5 0.34 5 0 5 C0 3.35 0 1.7 0 0 Z " fill="#FFFFFF" transform="translate(468,234)"/>
<path d="" fill="#FFFFFF" transform="translate(0,0)"/>
<path d="" fill="#FFFFFF" transform="translate(0,0)"/>
</svg>
